0
SECTION
2
HEADER
9
$ACADVER
1
AC1009
9
$INSUNITS
70
4
0
ENDSEC
0
SECTION
2
TABLES
0
TABLE
2
LAYER
70
4
0
LAYER
2
A-WALL
70
0
62
7
6
CONTINUOUS
0
LAYER
2
A-DIMS
70
0
62
8
6
CONTINUOUS
0
LAYER
2
A-TEXT
70
0
62
7
6
CONTINUOUS
0
LAYER
2
A-H1-NEW
70
0
62
1
6
CONTINUOUS
0
ENDTAB
0
ENDSEC
0
SECTION
2
ENTITIES
0
LINE
8
A-H1-NEW
10
0
20
0
30
0
11
5690
21
0
31
0
0
LINE
8
A-H1-NEW
10
5690
20
0
30
0
11
5690
21
1440
31
0
0
LINE
8
A-H1-NEW
10
5690
20
1440
30
0
11
0
21
1440
31
0
0
LINE
8
A-H1-NEW
10
0
20
1440
30
0
11
0
21
0
31
0
0
LINE
8
A-H1-NEW
10
0
20
0
30
0
11
0
21
8650
31
0
0
LINE
8
A-H1-NEW
10
0
20
8650
30
0
11
1400
21
8650
31
0
0
LINE
8
A-H1-NEW
10
1400
20
8650
30
0
11
1400
21
1440
31
0
0
TEXT
8
A-TEXT
10
0
20
-500
30
0
40
250
1
BALKON H1 NAD GARAZHOM 5690x1440
0
TEXT
8
A-TEXT
10
1600
20
720
30
0
40
180
1
NOVAYA DVER IZ DETSKOY; TOLKO POSLE RASCHETA
0
ENDSEC
0
EOF
