0
SECTION
2
HEADER
9
$ACADVER
1
AC1009
9
$INSUNITS
70
4
0
ENDSEC
0
SECTION
2
TABLES
0
TABLE
2
LAYER
70
4
0
LAYER
2
A-WALL
70
0
62
7
6
CONTINUOUS
0
LAYER
2
A-DIMS
70
0
62
8
6
CONTINUOUS
0
LAYER
2
A-TEXT
70
0
62
7
6
CONTINUOUS
0
LAYER
2
A-H1-NEW
70
0
62
1
6
CONTINUOUS
0
ENDTAB
0
ENDSEC
0
SECTION
2
ENTITIES
0
LINE
8
A-H1-NEW
10
0
20
0
30
0
11
7000
21
0
31
0
0
LINE
8
A-H1-NEW
10
7000
20
0
30
0
11
7000
21
3000
31
0
0
LINE
8
A-H1-NEW
10
7000
20
3000
30
0
11
0
21
3000
31
0
0
LINE
8
A-H1-NEW
10
0
20
3000
30
0
11
0
21
0
31
0
0
LINE
8
A-H1-NEW
10
2400
20
0
30
0
11
2400
21
3000
31
0
0
LINE
8
A-H1-NEW
10
4600
20
0
30
0
11
4600
21
3000
31
0
0
TEXT
8
A-TEXT
10
200
20
1500
30
0
40
220
1
KOMNATA OTDYHA H1
0
TEXT
8
A-TEXT
10
2700
20
1500
30
0
40
220
1
MOECHNAYA H1
0
TEXT
8
A-TEXT
10
5000
20
1500
30
0
40
220
1
PARNAYA H1
0
ENDSEC
0
EOF
