0
SECTION
2
HEADER
9
$ACADVER
1
AC1009
9
$INSUNITS
70
4
0
ENDSEC
0
SECTION
2
TABLES
0
TABLE
2
LAYER
70
4
0
LAYER
2
A-WALL
70
0
62
7
6
CONTINUOUS
0
LAYER
2
A-DIMS
70
0
62
8
6
CONTINUOUS
0
LAYER
2
A-TEXT
70
0
62
7
6
CONTINUOUS
0
LAYER
2
A-H1-NEW
70
0
62
1
6
CONTINUOUS
0
ENDTAB
0
ENDSEC
0
SECTION
2
ENTITIES
0
LINE
8
A-H1-NEW
10
0
20
0
30
0
11
20000
21
0
31
0
0
LINE
8
A-H1-NEW
10
20000
20
0
30
0
11
20000
21
30000
31
0
0
LINE
8
A-H1-NEW
10
20000
20
30000
30
0
11
0
21
30000
31
0
0
LINE
8
A-H1-NEW
10
0
20
30000
30
0
11
0
21
0
31
0
0
LINE
8
A-H1-NEW
10
1700
20
5890
30
0
11
15800
21
5890
31
0
0
LINE
8
A-H1-NEW
10
15800
20
5890
30
0
11
15800
21
22140
31
0
0
LINE
8
A-H1-NEW
10
15800
20
22140
30
0
11
1700
21
22140
31
0
0
LINE
8
A-H1-NEW
10
1700
20
22140
30
0
11
1700
21
5890
31
0
0
LINE
8
A-H1-NEW
10
1000
20
26000
30
0
11
8000
21
26000
31
0
0
LINE
8
A-H1-NEW
10
8000
20
26000
30
0
11
8000
21
29000
31
0
0
LINE
8
A-H1-NEW
10
8000
20
29000
30
0
11
1000
21
29000
31
0
0
LINE
8
A-H1-NEW
10
1000
20
29000
30
0
11
1000
21
26000
31
0
0
TEXT
8
A-TEXT
10
500
20
30500
30
0
40
350
1
UCHASTOK 20000x30000; edinicy mm
0
TEXT
8
A-TEXT
10
2600
20
14000
30
0
40
300
1
SUSHCHESTVUYUSCHAYA KOROBKA 14100x16250
0
TEXT
8
A-TEXT
10
1800
20
27600
30
0
40
250
1
BANYA H1 7000x3000
0
ENDSEC
0
EOF
