0
SECTION
2
HEADER
9
$ACADVER
1
AC1009
9
$INSUNITS
70
4
0
ENDSEC
0
SECTION
2
TABLES
0
TABLE
2
LAYER
70
4
0
LAYER
2
A-WALL
70
0
62
7
6
CONTINUOUS
0
LAYER
2
A-DIMS
70
0
62
8
6
CONTINUOUS
0
LAYER
2
A-TEXT
70
0
62
7
6
CONTINUOUS
0
LAYER
2
A-H1-NEW
70
0
62
1
6
CONTINUOUS
0
ENDTAB
0
ENDSEC
0
SECTION
2
ENTITIES
0
LINE
8
A-H1-NEW
10
0
20
0
30
0
11
1610
21
0
31
0
0
LINE
8
A-H1-NEW
10
1610
20
0
30
0
11
1610
21
1970
31
0
0
LINE
8
A-H1-NEW
10
1610
20
1970
30
0
11
1010
21
1970
31
0
0
LINE
8
A-H1-NEW
10
1010
20
1970
30
0
11
1010
21
600
31
0
0
LINE
8
A-H1-NEW
10
1010
20
600
30
0
11
0
21
600
31
0
0
LINE
8
A-H1-NEW
10
0
20
600
30
0
11
0
21
0
31
0
0
TEXT
8
A-TEXT
10
100
20
250
30
0
40
160
1
MOYKA V STOLYESHNITSE
0
TEXT
8
A-TEXT
10
1050
20
1200
30
0
40
160
1
OCHAG; RASCHET PECHNIKA
0
ENDSEC
0
EOF
